<svg width="18" height="14" viewBox="0 0 18 14" fill="none" xmlns="http://www.w3.org/2000/svg">
<path d="M16.7363 5.6875H15.0635V3.9375C15.0635 3.69688 14.8753 3.5 14.6453 3.5H13.8089C13.5789 3.5 13.3907 3.69688 13.3907 3.9375V5.6875H11.7179C11.4879 5.6875 11.2997 5.88438 11.2997 6.125V7C11.2997 7.24062 11.4879 7.4375 11.7179 7.4375H13.3907V9.1875C13.3907 9.42813 13.5789 9.625 13.8089 9.625H14.6453C14.8753 9.625 15.0635 9.42813 15.0635 9.1875V7.4375H16.7363C16.9663 7.4375 17.1545 7.24062 17.1545 7V6.125C17.1545 5.88438 16.9663 5.6875 16.7363 5.6875ZM6.28129 7C8.12921 7 9.62688 5.4332 9.62688 3.5C9.62688 1.5668 8.12921 0 6.28129 0C4.43338 0 2.9357 1.5668 2.9357 3.5C2.9357 5.4332 4.43338 7 6.28129 7ZM8.62321 7.875H8.18671C7.60646 8.15391 6.96087 8.3125 6.28129 8.3125C5.60172 8.3125 4.95874 8.15391 4.37588 7.875H3.93938C1.99999 7.875 0.426514 9.52109 0.426514 11.55V12.6875C0.426514 13.4121 0.988468 14 1.68111 14H10.8815C11.5741 14 12.1361 13.4121 12.1361 12.6875V11.55C12.1361 9.52109 10.5626 7.875 8.62321 7.875Z" fill="black" fill-opacity="0.6"/>
</svg>
