<svg width="9" height="10" viewBox="0 0 9 10" fill="none" xmlns="http://www.w3.org/2000/svg">
<path d="M6.4112 5L8.77983 2.65461C9.07049 2.3668 9.07049 1.90016 8.77983 1.61211L8.25341 1.09086C7.96275 0.803047 7.49149 0.803047 7.20058 1.09086L4.83195 3.43625L2.46332 1.09086C2.17266 0.803047 1.70139 0.803047 1.41049 1.09086L0.884075 1.61211C0.593411 1.89992 0.593411 2.36656 0.884075 2.65461L3.25271 5L0.884075 7.34539C0.593411 7.6332 0.593411 8.09984 0.884075 8.38789L1.41049 8.90914C1.70115 9.19695 2.17266 9.19695 2.46332 8.90914L4.83195 6.56375L7.20058 8.90914C7.49125 9.19695 7.96275 9.19695 8.25341 8.90914L8.77983 8.38789C9.07049 8.10008 9.07049 7.63344 8.77983 7.34539L6.4112 5Z" fill="black"/>
</svg>
