<svg width="12" height="13" viewBox="0 0 12 13" fill="none" xmlns="http://www.w3.org/2000/svg">
<path d="M11.6696 3.33076L10.5892 4.41122C10.479 4.52138 10.3009 4.52138 10.1907 4.41122L7.58918 1.80966C7.47902 1.69951 7.47902 1.52138 7.58918 1.41122L8.66965 0.330756C9.10793 -0.107526 9.82043 -0.107526 10.2611 0.330756L11.6696 1.73935C12.1103 2.17763 12.1103 2.89013 11.6696 3.33076ZM6.66105 2.33935L0.506366 8.49404L0.00949103 11.3417C-0.0584777 11.7261 0.276679 12.0589 0.661054 11.9933L3.50871 11.494L9.6634 5.33935C9.77355 5.22919 9.77355 5.05107 9.6634 4.94091L7.06183 2.33935C6.94933 2.22919 6.77121 2.22919 6.66105 2.33935ZM2.90871 7.96669C2.7798 7.83779 2.7798 7.63154 2.90871 7.50263L6.51809 3.89326C6.64699 3.76435 6.85324 3.76435 6.98215 3.89326C7.11105 4.02216 7.11105 4.22841 6.98215 4.35732L3.37277 7.96669C3.24387 8.0956 3.03762 8.0956 2.90871 7.96669ZM2.06262 9.93779H3.18762V10.7886L1.6759 11.0534L0.946991 10.3245L1.21183 8.81279H2.06262V9.93779Z" fill="black"/>
</svg>
