<svg width="11" height="12" viewBox="0 0 11 12" fill="none" xmlns="http://www.w3.org/2000/svg">
<path d="M10.1705 3.04549L8.20451 1.07951C7.99353 0.868529 7.70738 0.750002 7.40902 0.75H1.125C0.503672 0.75 0 1.25367 0 1.875V10.125C0 10.7463 0.503672 11.25 1.125 11.25H9.375C9.99633 11.25 10.5 10.7463 10.5 10.125V3.84098C10.5 3.54262 10.3815 3.25647 10.1705 3.04549ZM5.25 9.75C4.42158 9.75 3.75 9.07842 3.75 8.25C3.75 7.42158 4.42158 6.75 5.25 6.75C6.07842 6.75 6.75 7.42158 6.75 8.25C6.75 9.07842 6.07842 9.75 5.25 9.75ZM7.5 2.61281V4.96875C7.5 5.12407 7.37407 5.25 7.21875 5.25H1.78125C1.62593 5.25 1.5 5.12407 1.5 4.96875V2.53125C1.5 2.37593 1.62593 2.25 1.78125 2.25H7.13719C7.21179 2.25 7.28332 2.27962 7.33605 2.33238L7.41762 2.41395C7.44374 2.44006 7.46446 2.47106 7.47859 2.50518C7.49273 2.53931 7.5 2.57588 7.5 2.61281Z" fill="black"/>
</svg>
