<svg width="15" height="15" viewBox="0 0 15 15" fill="none" xmlns="http://www.w3.org/2000/svg">
<path fill-rule="evenodd" clip-rule="evenodd" d="M13.7497 12.2274L10.8639 9.34162C11.5594 8.33766 11.9073 7.21854 11.9073 5.9846C11.9073 5.18252 11.7516 4.41545 11.4403 3.68348C11.129 2.95142 10.7083 2.32045 10.1782 1.79038C9.64816 1.26031 9.0173 0.839596 8.28534 0.528347C7.55317 0.216995 6.7861 0.0613708 5.98402 0.0613708C5.18194 0.0613708 4.41487 0.216995 3.6829 0.528347C2.95084 0.839596 2.31987 1.26031 1.7898 1.79038C1.25973 2.32045 0.839016 2.95152 0.527767 3.68348C0.216415 4.41555 0.060791 5.18252 0.060791 5.9846C0.060791 6.78668 0.216415 7.55354 0.527767 8.28571C0.839016 9.01767 1.25973 9.64854 1.7898 10.1786C2.31987 10.7088 2.95094 11.1294 3.6829 11.4407C4.41497 11.7521 5.18194 11.9077 5.98402 11.9077C7.21817 11.9077 8.33718 11.5598 9.34115 10.8643L12.227 13.7417C12.4289 13.9548 12.681 14.0614 12.9841 14.0614C13.2758 14.0614 13.5283 13.9548 13.7413 13.7417C13.9544 13.5286 14.061 13.2761 14.061 12.9845C14.0611 12.6874 13.9574 12.4349 13.7497 12.2274ZM8.64698 8.64736C7.90934 9.385 7.02176 9.75377 5.98402 9.75377C4.94639 9.75377 4.0588 9.38489 3.32116 8.64736C2.58352 7.90971 2.21475 7.02223 2.21475 5.9845C2.21475 4.94686 2.58362 4.05917 3.32116 3.32164C4.0587 2.58399 4.94639 2.21522 5.98402 2.21522C7.02165 2.21522 7.90924 2.5841 8.64698 3.32164C9.38462 4.05917 9.7535 4.94686 9.7535 5.9845C9.7535 7.02223 9.38452 7.90971 8.64698 8.64736Z" fill="black" fill-opacity="0.6"/>
</svg>
